# xmcd CD database file
#
# Track frame offsets:
#	150
#	20917
#	39162
#
# Disc length: 763 seconds
#
# Revision: 5
# Processed by: cddbd v1.5.2PL0 Copyright (c) Steve Scherf et al.
# Submitted via: CDex 1.51
#
DISCID=1c02f903
DTITLE=黒夢 - 中絶
DYEAR=1992
DGENRE=ヴィジュアル
TTITLE0=中絶
TTITLE1=浮遊悲
TTITLE2=IN SKY
EXTD=YEAR: 1992
EXTT0=
EXTT1=
EXTT2=
PLAYORDER=
